<?xml version="1.0" standalone="no"?>
<!DOCTYPE svg PUBLIC "-//W3C//DTD SVG 20010904//EN"
 "http://www.w3.org/TR/2001/REC-SVG-20010904/DTD/svg10.dtd">
<svg version="1.0" xmlns="http://www.w3.org/2000/svg"
 width="1280.000000pt" height="1280.000000pt" viewBox="0 0 1280.000000 1280.000000"
 preserveAspectRatio="xMidYMid meet">
<metadata>
Created by potrace 1.11, written by Peter Selinger 2001-2013
</metadata>
<g transform="translate(0.000000,1280.000000) scale(0.100000,-0.100000)"
fill="#000000" stroke="none">
<path d="M4360 9384 c0 -135 -1 -146 -17 -139 -86 37 -185 41 -258 11 -131
-55 -208 -232 -185 -426 12 -100 34 -159 77 -210 49 -57 101 -80 183 -80 64 0
157 31 174 59 12 19 26 12 26 -14 0 -24 2 -25 65 -25 l65 0 0 485 0 485 -65 0
-65 0 0 -146z m-47 -240 l47 -16 0 -197 c0 -221 4 -209 -78 -250 -55 -28 -130
-30 -173 -4 -91 52 -115 278 -44 400 45 76 143 103 248 67z"/>
<path d="M2150 9435 l0 -65 75 0 75 0 0 65 0 65 -75 0 -75 0 0 -65z"/>
<path d="M4960 9435 l0 -65 70 0 70 0 0 65 0 65 -70 0 -70 0 0 -65z"/>
<path d="M9550 9435 l0 -65 70 0 70 0 0 65 0 65 -70 0 -70 0 0 -65z"/>
<path d="M1060 9026 l0 -466 193 0 c221 0 264 8 341 67 73 56 101 116 101 219
0 72 -3 86 -30 130 -21 34 -45 57 -78 74 -26 14 -47 27 -47 30 0 3 13 14 28
24 66 44 100 138 81 226 -13 62 -44 101 -106 131 -45 22 -63 23 -265 27 l-218
4 0 -466z m334 344 c52 -6 75 -14 94 -33 33 -33 40 -100 15 -147 -30 -57 -68
-72 -199 -78 l-114 -5 0 137 0 136 68 0 c37 -1 98 -5 136 -10z m54 -376 c17
-4 48 -21 69 -39 34 -30 37 -36 41 -98 5 -80 -15 -120 -79 -156 -36 -21 -60
-25 -166 -29 l-123 -5 0 167 0 166 114 0 c62 0 127 -3 144 -6z"/>
<path d="M10330 9360 l0 -100 -40 0 -40 0 0 -55 0 -55 40 0 40 0 0 -232 c0
-205 3 -238 19 -273 22 -49 48 -73 98 -91 47 -16 106 -17 173 -3 l50 11 0 55
c0 55 0 55 -27 49 -71 -16 -104 -18 -134 -6 -53 22 -59 53 -59 285 l0 205 110
0 110 0 0 55 0 55 -110 0 -110 0 0 100 0 100 -60 0 -60 0 0 -100z"/>
<path d="M3113 9270 c-166 -35 -258 -206 -232 -434 10 -91 34 -149 85 -205 64
-71 102 -86 224 -86 96 0 109 2 152 27 116 69 163 177 156 356 -3 78 -11 122
-26 162 -25 64 -86 130 -146 159 -48 23 -153 34 -213 21z m126 -110 c49 -14
98 -65 117 -123 25 -76 17 -237 -16 -297 -35 -63 -80 -90 -147 -90 -127 0
-188 87 -187 265 1 71 6 101 24 143 38 89 119 128 209 102z"/>
<path d="M6947 9270 c-95 -24 -168 -87 -214 -185 -26 -55 -28 -69 -28 -180 0
-111 2 -125 28 -181 32 -68 71 -111 131 -143 93 -49 237 -53 361 -10 l70 25 3
67 c2 37 0 67 -4 67 -3 0 -39 -16 -79 -36 -82 -41 -165 -53 -233 -35 -82 23
-151 111 -152 194 l0 37 240 0 240 0 0 63 c0 141 -52 247 -143 291 -60 30
-159 41 -220 26z m163 -123 c40 -26 65 -67 74 -119 l7 -38 -181 0 c-203 0
-197 -3 -161 75 32 71 88 105 172 105 42 0 65 -6 89 -23z"/>
<path d="M8790 9273 c-69 -12 -105 -27 -142 -61 -50 -45 -68 -85 -68 -151 0
-121 53 -170 228 -211 99 -23 136 -45 146 -86 33 -129 -194 -154 -351 -38
l-23 16 0 -75 0 -75 63 -21 c239 -82 442 7 440 194 -1 114 -48 160 -198 196
-151 35 -175 52 -175 118 0 101 172 122 301 37 21 -14 41 -26 44 -26 3 0 5 31
5 69 l0 69 -39 16 c-68 27 -169 40 -231 29z"/>
<path d="M2160 8910 l0 -350 65 0 65 0 0 350 0 350 -65 0 -65 0 0 -350z"/>
<path d="M4970 8910 l0 -350 60 0 60 0 0 350 0 350 -60 0 -60 0 0 -350z"/>
<path d="M5565 9243 c4 -10 60 -160 125 -333 65 -173 121 -323 125 -332 6 -14
19 -18 65 -18 l57 0 129 341 c71 188 131 346 132 351 2 5 -26 8 -64 6 l-68 -3
-90 -257 c-50 -142 -93 -254 -97 -250 -3 4 -46 121 -95 259 l-89 253 -69 0
c-61 0 -67 -2 -61 -17z"/>
<path d="M7770 8910 l0 -350 60 0 60 0 0 245 0 245 40 29 c48 35 115 54 169
49 l41 -4 0 70 0 69 -54 -6 c-58 -6 -116 -31 -165 -72 l-31 -27 0 51 0 51 -60
0 -60 0 0 -350z"/>
<path d="M9560 8910 l0 -350 60 0 60 0 0 350 0 350 -60 0 -60 0 0 -350z"/>
<path d="M11005 9243 c52 -132 245 -642 245 -650 0 -5 -27 -72 -60 -148 -33
-76 -60 -140 -60 -142 0 -2 30 -3 68 -3 l67 0 185 472 c102 259 187 475 188
480 2 5 -26 8 -64 6 l-68 -3 -90 -247 c-50 -136 -93 -244 -97 -240 -3 4 -46
116 -95 250 l-89 242 -68 0 c-62 0 -68 -2 -62 -17z"/>
<path d="M3168 7994 c-52 -16 -104 -62 -125 -111 -7 -18 -16 -60 -20 -93 l-6
-60 -38 0 -39 0 0 -55 0 -55 40 0 40 0 0 -300 0 -300 65 0 65 0 0 300 0 300
90 0 90 0 0 55 0 55 -96 0 -97 0 6 45 c10 72 31 103 79 115 38 11 108 7 144
-7 11 -4 14 8 14 55 l0 59 -46 7 c-68 9 -113 6 -166 -10z"/>
<path d="M9290 7905 l0 -65 75 0 75 0 0 65 0 65 -75 0 -75 0 0 -65z"/>
<path d="M1030 7910 l0 -50 55 0 55 0 0 -365 0 -365 -55 0 -55 0 0 -55 0 -55
180 0 180 0 0 55 0 55 -55 0 -55 0 0 365 0 365 55 0 55 0 0 50 0 50 -180 0
-180 0 0 -50z"/>
<path d="M8460 7830 l0 -100 -40 0 -40 0 0 -55 0 -55 40 0 40 0 0 -232 c0
-205 3 -238 19 -274 35 -78 108 -111 223 -100 97 9 98 9 98 73 0 55 0 55 -27
49 -63 -15 -110 -17 -136 -7 -49 19 -57 57 -57 286 l0 205 110 0 110 0 0 55 0
55 -110 0 -110 0 0 100 0 100 -60 0 -60 0 0 -100z"/>
<path d="M2265 7741 c-32 -8 -95 -40 -132 -67 -23 -16 -23 -16 -23 20 l0 36
-60 0 -60 0 0 -355 0 -355 60 0 60 0 0 263 0 262 48 31 c63 42 114 57 161 49
87 -15 101 -67 101 -387 l0 -218 60 0 60 0 0 269 c0 285 -4 317 -51 382 -39
55 -149 90 -224 70z"/>
<path d="M4051 7740 c-162 -34 -252 -187 -238 -403 9 -141 60 -239 155 -294
38 -22 61 -28 133 -31 195 -10 301 82 331 285 20 139 -11 276 -81 356 -63 71
-193 109 -300 87z m160 -126 c97 -50 130 -270 61 -406 -33 -63 -78 -90 -151
-90 -60 1 -102 21 -131 63 -70 98 -66 318 8 400 51 56 141 71 213 33z"/>
<path d="M6150 7739 c-19 -6 -56 -26 -82 -45 l-48 -34 0 35 0 35 -60 0 -60 0
0 -355 0 -355 60 0 60 0 0 261 c0 298 -7 275 98 326 63 30 106 26 143 -13 24
-26 24 -26 27 -300 l3 -274 65 0 64 0 0 264 0 265 33 25 c53 40 105 58 147 51
80 -13 89 -54 90 -367 l0 -238 61 0 60 0 -3 293 -3 294 -30 48 c-39 63 -88 89
-169 89 -71 -1 -108 -17 -172 -76 -24 -22 -44 -36 -44 -30 0 17 -50 72 -80 87
-37 19 -118 26 -160 14z"/>
<path d="M10171 7740 c-162 -34 -252 -187 -238 -403 9 -141 60 -239 155 -294
38 -22 61 -28 133 -31 195 -10 301 82 331 285 20 139 -11 276 -81 356 -63 71
-193 109 -300 87z m160 -126 c97 -50 130 -270 61 -406 -33 -63 -78 -90 -151
-90 -60 1 -102 21 -131 63 -70 98 -66 318 8 400 51 56 141 71 213 33z"/>
<path d="M11347 7736 c-27 -7 -69 -27 -93 -44 l-44 -32 0 35 0 35 -65 0 -65 0
0 -355 0 -355 65 0 65 0 2 267 3 268 53 32 c92 55 179 53 219 -5 16 -24 18
-55 21 -294 l3 -268 65 0 66 0 -4 278 c-3 239 -6 283 -21 317 -27 60 -74 103
-131 120 -59 18 -76 18 -139 1z"/>
<path d="M7405 7727 l-50 -12 -3 -63 c-2 -34 1 -62 5 -62 4 0 37 9 73 21 69
21 188 27 230 11 38 -15 61 -46 67 -90 l5 -40 -78 -7 c-263 -23 -361 -96 -357
-265 3 -130 88 -210 222 -210 75 0 103 8 169 53 l42 28 0 -36 0 -35 66 0 66 0
-4 278 c-3 272 -3 278 -28 327 -27 53 -70 88 -129 105 -48 13 -233 11 -296 -3z
m325 -432 l0 -95 -54 -35 c-101 -68 -214 -55 -245 29 -13 33 -13 44 0 80 12
35 23 45 69 68 36 18 82 31 135 36 44 5 83 10 88 11 4 0 7 -42 7 -94z"/>
<path d="M4960 7375 l0 -355 65 0 65 0 0 248 c0 245 0 249 23 269 44 41 89 57
160 58 l68 0 -3 65 -3 65 -52 -1 c-53 -2 -130 -33 -160 -66 -25 -28 -33 -22
-33 27 l0 45 -65 0 -65 0 0 -355z"/>
<path d="M9300 7375 l0 -355 65 0 65 0 0 355 0 355 -65 0 -65 0 0 -355z"/>
<path d="M6490 6321 l0 -150 -45 20 c-63 28 -176 28 -236 1 -129 -57 -197
-200 -186 -391 12 -213 106 -327 267 -325 60 1 139 31 177 66 l23 21 0 -36 0
-37 60 0 60 0 0 490 0 490 -60 0 -60 0 0 -149z m-37 -244 l37 -16 0 -195 0
-196 -38 -25 c-22 -14 -62 -34 -89 -44 -50 -18 -52 -18 -104 3 -45 18 -57 28
-78 70 -49 95 -38 286 21 361 49 63 157 81 251 42z"/>
<path d="M10230 6321 l0 -150 -45 20 c-63 28 -176 28 -236 1 -129 -57 -197
-200 -186 -391 12 -213 106 -327 267 -325 60 1 139 31 177 66 l23 21 0 -36 0
-37 60 0 60 0 0 490 0 490 -60 0 -60 0 0 -149z m-37 -244 l37 -16 0 -195 0
-196 -38 -25 c-22 -14 -62 -34 -89 -44 -50 -18 -52 -18 -104 3 -45 18 -57 28
-78 70 -49 95 -38 286 21 361 49 63 157 81 251 42z"/>
<path d="M1203 6424 c-52 -19 -128 -85 -152 -133 -59 -115 -20 -266 84 -327
23 -13 95 -38 161 -55 187 -49 219 -73 219 -168 0 -96 -70 -146 -200 -145 -91
1 -159 24 -237 80 -27 19 -50 34 -53 34 -3 0 -5 -36 -5 -81 l0 -80 44 -19 c87
-39 164 -52 275 -48 120 5 174 24 234 85 58 58 72 96 72 199 0 82 -3 94 -27
132 -38 57 -95 87 -234 123 -65 17 -135 39 -155 50 -70 35 -90 139 -37 196 75
83 223 82 357 -1 32 -20 62 -36 65 -36 3 0 6 36 6 79 l0 79 -62 22 c-83 30
-291 38 -355 14z"/>
<path d="M2420 6300 l0 -100 -40 0 -40 0 0 -55 0 -55 39 0 40 0 3 -237 c3
-223 4 -241 25 -279 31 -58 80 -86 161 -92 37 -2 86 1 110 7 l42 12 0 56 c0
53 -1 55 -22 49 -86 -26 -156 -14 -177 30 -7 16 -11 101 -11 239 l0 215 105 0
105 0 0 55 0 55 -105 0 -105 0 0 100 0 100 -65 0 -65 0 0 -100z"/>
<path d="M4990 6208 c-24 -4 -69 -23 -100 -42 l-55 -35 -3 35 -3 34 -60 0 -59
0 0 -355 0 -355 60 0 60 0 0 259 0 260 33 24 c109 82 225 81 259 -1 7 -17 13
-124 16 -284 l4 -258 59 0 59 0 0 263 c0 280 -6 325 -50 387 -41 57 -129 85
-220 68z"/>
<path d="M3500 6196 l-55 -11 -3 -63 c-3 -72 -5 -71 86 -42 86 27 195 27 240
0 34 -21 52 -54 52 -95 0 -22 -5 -24 -67 -30 -173 -17 -253 -42 -310 -97 -41
-39 -57 -86 -56 -163 1 -148 119 -243 267 -216 62 11 85 21 134 58 l32 24 0
-35 0 -36 66 0 66 0 -3 278 c-4 272 -4 278 -29 327 -27 53 -70 88 -129 105
-47 13 -221 11 -291 -4z m309 -533 c-26 -30 -99 -64 -151 -69 -103 -10 -166
57 -139 146 19 64 104 101 261 112 l35 3 3 -89 c2 -58 -1 -93 -9 -103z"/>
<path d="M7410 6196 l-55 -11 -3 -63 c-3 -72 -5 -71 86 -42 86 27 195 27 240
0 34 -21 52 -54 52 -95 0 -22 -5 -24 -67 -30 -173 -17 -253 -42 -310 -97 -41
-39 -57 -86 -56 -163 1 -148 119 -243 267 -216 62 11 85 21 134 58 l32 24 0
-35 0 -36 66 0 66 0 -3 278 c-4 272 -4 278 -29 327 -27 53 -70 88 -129 105
-47 13 -221 11 -291 -4z m309 -533 c-26 -30 -99 -64 -151 -69 -103 -10 -166
57 -139 146 19 64 104 101 261 112 l35 3 3 -89 c2 -58 -1 -93 -9 -103z"/>
<path d="M11255 6186 c-27 -13 -60 -34 -72 -47 -82 -89 -66 -248 30 -303 23
-13 89 -36 146 -50 111 -27 136 -42 146 -85 15 -69 -40 -114 -140 -115 -62 0
-142 29 -206 74 l-29 21 0 -75 0 -75 58 -21 c81 -32 221 -38 292 -15 112 37
174 142 150 252 -21 91 -67 124 -223 158 -104 23 -141 48 -145 100 -2 30 3 46
17 62 21 22 77 43 117 43 35 0 125 -30 165 -56 21 -13 41 -24 44 -24 3 0 5 31
5 70 l0 69 -66 21 c-96 29 -222 28 -289 -4z"/>
<path d="M8700 5845 l0 -355 65 0 65 0 0 250 0 250 40 29 c48 35 127 56 175
47 l35 -7 0 65 c0 55 -3 66 -20 71 -42 13 -123 -13 -187 -61 -17 -13 -34 -24
-37 -24 -3 0 -6 20 -6 45 l0 45 -65 0 -65 0 0 -355z"/>
<path d="M974 4680 c-12 -5 -29 -19 -38 -32 -19 -26 -21 -96 -3 -119 28 -37
49 -39 396 -39 l341 0 0 -350 0 -350 105 0 105 0 0 350 0 349 351 3 351 3 19
24 c26 32 26 110 0 142 l-19 24 -794 2 c-436 1 -803 -2 -814 -7z"/>
<path d="M4007 4684 c-4 -4 -7 -207 -7 -451 l0 -443 616 0 c795 0 832 5 941
123 86 93 117 191 111 351 -5 130 -27 198 -89 276 -55 70 -108 106 -187 126
-60 16 -137 18 -722 21 -361 2 -659 1 -663 -3z m1310 -209 c60 -18 116 -74
132 -132 16 -55 13 -164 -4 -214 -9 -24 -30 -58 -47 -76 -61 -63 -65 -63 -655
-63 l-533 0 0 250 0 250 528 0 c441 0 537 -2 579 -15z"/>
<path d="M7050 4352 l0 -339 31 -61 c32 -65 66 -99 133 -135 39 -21 52 -22
306 -22 l265 0 58 32 59 32 36 -24 c57 -37 111 -44 338 -45 159 0 223 4 261
15 64 19 143 88 175 153 23 46 23 54 26 390 l3 342 -105 0 -106 0 0 -321 0
-321 -29 -29 -29 -29 -201 0 c-213 0 -241 5 -260 47 -7 16 -11 129 -11 338 l0
315 -99 0 -100 0 -3 -326 -3 -326 -28 -24 c-28 -24 -31 -24 -228 -24 -221 0
-261 8 -279 55 -6 15 -10 155 -10 336 l0 309 -100 0 -100 0 0 -338z"/>
<path d="M10430 4671 c-110 -19 -147 -37 -204 -95 -196 -202 -157 -604 71
-728 97 -53 181 -59 753 -56 l515 3 54 30 c118 65 151 137 151 329 0 148 -8
172 -60 199 -32 16 -76 17 -568 15 l-534 -3 -19 -24 c-13 -15 -19 -39 -19 -70
0 -43 5 -55 43 -93 1 -1 214 -5 472 -8 l470 -5 3 -61 c2 -48 -1 -66 -17 -85
l-19 -24 -507 -3 c-323 -2 -520 1 -544 8 -94 25 -147 94 -158 203 -11 123 30
217 114 258 l48 24 628 5 629 5 19 24 c21 25 26 99 9 131 -20 38 -54 40 -654
39 -497 -1 -595 -4 -676 -18z"/>
</g>
</svg>
