<?xml version="1.0" standalone="no"?>
<!DOCTYPE svg PUBLIC "-//W3C//DTD SVG 20010904//EN"
 "http://www.w3.org/TR/2001/REC-SVG-20010904/DTD/svg10.dtd">
<svg version="1.0" xmlns="http://www.w3.org/2000/svg"
 width="360.000000pt" height="360.000000pt" viewBox="0 0 360.000000 360.000000"
 preserveAspectRatio="xMidYMid meet">
<metadata>
Created by potrace 1.11, written by Peter Selinger 2001-2013
</metadata>
<g transform="translate(0.000000,360.000000) scale(0.100000,-0.100000)"
fill="#000000" stroke="none">
<path d="M0 1800 l0 -1800 1800 0 1800 0 0 1800 0 1800 -1800 0 -1800 0 0
-1800z m3027 339 c69 -33 115 -82 138 -149 8 -24 15 -46 15 -51 0 -5 -22 -9
-50 -9 -47 0 -50 2 -69 38 -51 100 -172 141 -277 93 -86 -39 -129 -128 -127
-261 3 -178 91 -278 237 -268 48 3 74 11 105 31 45 30 81 90 81 137 l0 30
-101 0 -100 0 3 43 3 42 150 0 150 0 -3 -75 c-4 -97 -26 -163 -70 -212 -45
-50 -93 -75 -171 -87 -189 -30 -337 70 -381 258 -16 69 -8 210 17 275 20 56
90 139 137 163 91 49 214 49 313 2z m-2087 -24 l0 -45 -110 0 -110 0 0 -310 0
-310 -50 0 -50 0 0 310 0 310 -110 0 -110 0 0 45 0 45 270 0 270 0 0 -45z
m463 25 c113 -42 182 -137 195 -267 21 -206 -48 -348 -195 -403 -46 -17 -78
-20 -218 -20 l-165 0 0 355 0 355 165 0 c140 0 172 -3 218 -20z m396 -242 c35
-145 66 -268 70 -275 3 -6 40 112 81 263 l75 274 53 0 c28 0 52 -2 52 -5 0 -4
107 -393 136 -495 l16 -55 68 275 67 275 52 3 c37 2 51 -1 51 -10 -1 -7 -43
-166 -94 -353 l-93 -340 -49 -3 -49 -3 -74 258 c-41 142 -77 263 -80 270 -4 7
-35 -88 -70 -210 -36 -122 -71 -243 -79 -269 l-14 -48 -49 0 c-27 0 -49 2 -49
5 0 3 -172 638 -186 688 -5 15 2 17 48 17 l54 0 63 -262z"/>
<path d="M1120 1805 l0 -267 113 3 c101 4 117 7 160 32 34 20 55 42 75 80 24
47 27 62 27 152 0 127 -24 183 -100 230 -45 28 -56 30 -162 33 l-113 4 0 -267z"/>
</g>
</svg>
